# xmcd
#
# Track frame offsets:
#	150
#	12719
#	32446
#	52162
#	66364
#	79690
#	92510
#	105363
#	118560
#	138153
#	153639
#	163534
#	176935
#	191088
#	201913
#	211642
#	221661
#	234792
#	244914
#	256269
#	268477
#	280214
#	290315
#	307040
#	318013
#	327542
#	341491
#
# Disc length: 4707 seconds
#
# Revision: 1
# Processed by: cddbd v1.5.1PL0 Copyright (c) Steve Scherf et al.
# Submitted via: audiograbber 1.83.01
#
DISCID=9012611b
DTITLE=Jerry Lee Lewis - Southern Roots - Boogie Woogie Country Man
DYEAR=1900
DGENRE=Country
TTITLE0=Meat Man
TTITLE1=When A Man Loves A Woman
TTITLE2=Hold On I'm Coming
TTITLE3=Just A Little Bit
TTITLE4=Born To Be A Loser
TTITLE5=The Haunted House
TTITLE6=Blueberry Hill
TTITLE7=The Revolutionary Man
TTITLE8=Big Blue Diamond
TTITLE9=That Old Bourbon Street Church
TTITLE10=Margie
TTITLE11=Cry
TTITLE12=I'm Still Jealous Of You
TTITLE13=A Little Peace And Harmony
TTITLE14=Jesus Is On The Mainline
TTITLE15=Forever Forgiving
TTITLE16=(Remember Me) I'm The One Who Loves You
TTITLE17=Red Hot Memories (Ice Cold Beer)
TTITLE18=I Can Still Hear The Music In The Restroom
TTITLE19=Love Inflation
TTITLE20=I Was Sorta Wonderin'
TTITLE21=Thanks For Nothing
TTITLE22=Boogie Woogie Country Man
TTITLE23=That Kind Of Fool
TTITLE24=A Damn Fine Country Song
TTITLE25=When I Take My Vacation In Heaven
TTITLE26=Don't Boogie Woggie
EXTD=
EXTT0=
EXTT1=
EXTT2=
EXTT3=
EXTT4=
EXTT5=
EXTT6=
EXTT7=
EXTT8=
EXTT9=
EXTT10=
EXTT11=
EXTT12=
EXTT13=
EXTT14=
EXTT15=
EXTT16=
EXTT17=
EXTT18=
EXTT19=
EXTT20=
EXTT21=
EXTT22=
EXTT23=
EXTT24=
EXTT25=
EXTT26=
PLAYORDER=
